#Comment line ignore any data following # character 
#Hierarchical Translation and Rotation (.htr) file 
[Header]	
#Header keywords are followed by a single value 
FileType HTR		#Single word string
DataType HTRS		#Translation followed by rotation and scale data
FileVersion 1		#integer
NumSegments 64		#integer
NumFrames 3		#integer
DataFrameRate 30		#integer, data frame rate in this file
EulerRotationOrder ZYX
CalibrationUnits mm
RotationUnits Degrees
GlobalAxisofGravity Y
BoneLengthAxis Y
ScaleFactor 1.00
[SegmentNames&Hierarchy]
#CHILD	PARENT
Pinger_Root GLOBAL
Pelvis Pinger_Root
L_Hip Pelvis
R_Hip Pelvis
Rear_Leg01 Pelvis
Spine1 Pelvis
L_Leg01 L_Hip
L_Leg02 L_Leg01
L_Leg03 L_Leg02
L_Foot L_Leg03
L_Toe1_01 L_Foot
L_Toe2_01 L_Foot
L_Toe3_01 L_Foot
planeAlignerLeft L_Foot
L_Toe1_02 L_Toe1_01
L_Toe1_03 L_Toe1_02
L_Toe2_02 L_Toe2_01
L_Toe2_03 L_Toe2_02
L_Toe3_02 L_Toe3_01
L_Toe3_03 L_Toe3_02
planeLockWeightLeft planeAlignerLeft
R_Leg01 R_Hip
R_Leg02 R_Leg01
R_Leg03 R_Leg02
R_Foot R_Leg03
planeAlignerRight R_Foot
R_Toe1_01 R_Foot
R_Toe2_01 R_Foot
R_Toe3_01 R_Foot
planeLockWeightRight planeAlignerRight
R_Toe1_02 R_Toe1_01
R_Toe1_03 R_Toe1_02
R_Toe2_02 R_Toe2_01
R_Toe2_03 R_Toe2_02
R_Toe3_02 R_Toe3_01
R_Toe3_03 R_Toe3_02
Rear_Leg02 Rear_Leg01
Rear_Leg03 Rear_Leg02
Rear_Leg04 Rear_Leg03
Rear_Foot Rear_Leg04
planeAlignerCenter Rear_Foot
Rear_Toe1_01 Rear_Foot
Rear_Toe2_01 Rear_Foot
Rear_Toe3_01 Rear_Foot
planeLockWeightCenter planeAlignerCenter
Rear_Toe1_02 Rear_Toe1_01
Rear_Toe1_03 Rear_Toe1_02
Rear_Toe2_02 Rear_Toe2_01
Rear_Toe2_03 Rear_Toe2_02
Rear_Toe3_02 Rear_Toe3_01
Rear_Toe3_03 Rear_Toe3_02
Back_Bone Spine1
Head Spine1
Motor_Bone Back_Bone
Ping_Mechanism Back_Bone
BN_LookIK Head
bottomMouth Head
L_Mouth01 Head
L_mouthFront Head
mouthGun Head
R_Mouth01 Head
R_mouthFront Head
TopMouth Head
weapon_bone Head
[BasePosition]
#SegmentName Tx, Ty, Tz, Rx, Ry, Rz, BoneLength
Pinger_Root 0.000000 0.000000 0.000000 -90.000000 0.000000 0.000000 10.000000 
Pelvis 0.000000 0.000000 0.000000 0.000000 0.000000 0.000000 10.000000 
L_Hip 0.000000 0.000000 0.000000 0.000000 0.000000 0.000000 10.000000 
R_Hip 0.000000 0.000000 0.000000 0.000000 0.000000 0.000000 10.000000 
Rear_Leg01 0.000000 0.000000 0.000000 0.000000 0.000000 0.000000 10.000000 
Spine1 0.000000 0.000000 0.000000 0.000000 0.000000 0.000000 10.000000 
L_Leg01 0.000000 0.000000 0.000000 0.000000 0.000000 0.000000 10.000000 
L_Leg02 0.000000 0.000000 0.000000 0.000000 0.000000 0.000000 10.000000 
L_Leg03 0.000000 0.000000 0.000000 0.000000 0.000000 0.000000 10.000000 
L_Foot 0.000000 0.000000 0.000000 0.000000 0.000000 0.000000 10.000000 
L_Toe1_01 0.000000 0.000000 0.000000 0.000000 0.000000 0.000000 10.000000 
L_Toe2_01 0.000000 0.000000 0.000000 0.000000 0.000000 0.000000 10.000000 
L_Toe3_01 0.000000 0.000000 0.000000 0.000000 0.000000 0.000000 10.000000 
planeAlignerLeft 0.000000 0.000000 0.000000 0.000000 0.000000 0.000000 10.000000 
L_Toe1_02 0.000000 0.000000 0.000000 0.000000 0.000000 0.000000 10.000000 
L_Toe1_03 0.000000 0.000000 0.000000 0.000000 0.000000 0.000000 10.000000 
L_Toe2_02 0.000000 0.000000 0.000000 0.000000 0.000000 0.000000 10.000000 
L_Toe2_03 0.000000 0.000000 0.000000 0.000000 0.000000 0.000000 10.000000 
L_Toe3_02 0.000000 0.000000 0.000000 0.000000 0.000000 0.000000 10.000000 
L_Toe3_03 0.000000 0.000000 0.000000 0.000000 0.000000 0.000000 10.000000 
planeLockWeightLeft 0.000000 0.000000 0.000000 0.000000 0.000000 0.000000 10.000000 
R_Leg01 0.000000 0.000000 0.000000 0.000000 0.000000 0.000000 10.000000 
R_Leg02 0.000000 0.000000 0.000000 0.000000 0.000000 0.000000 10.000000 
R_Leg03 0.000000 0.000000 0.000000 0.000000 0.000000 0.000000 10.000000 
R_Foot 0.000000 0.000000 0.000000 0.000000 0.000000 0.000000 10.000000 
planeAlignerRight 0.000000 0.000000 0.000000 0.000000 0.000000 0.000000 10.000000 
R_Toe1_01 0.000000 0.000000 0.000000 0.000000 0.000000 0.000000 10.000000 
R_Toe2_01 0.000000 0.000000 0.000000 0.000000 0.000000 0.000000 10.000000 
R_Toe3_01 0.000000 0.000000 0.000000 0.000000 0.000000 0.000000 10.000000 
planeLockWeightRight 0.000000 0.000000 0.000000 0.000000 0.000000 0.000000 10.000000 
R_Toe1_02 0.000000 0.000000 0.000000 0.000000 0.000000 0.000000 10.000000 
R_Toe1_03 0.000000 0.000000 0.000000 0.000000 0.000000 0.000000 10.000000 
R_Toe2_02 0.000000 0.000000 0.000000 0.000000 0.000000 0.000000 10.000000 
R_Toe2_03 0.000000 0.000000 0.000000 0.000000 0.000000 0.000000 10.000000 
R_Toe3_02 0.000000 0.000000 0.000000 0.000000 0.000000 0.000000 10.000000 
R_Toe3_03 0.000000 0.000000 0.000000 0.000000 0.000000 0.000000 10.000000 
Rear_Leg02 0.000000 0.000000 0.000000 0.000000 0.000000 0.000000 10.000000 
Rear_Leg03 0.000000 0.000000 0.000000 0.000000 0.000000 0.000000 10.000000 
Rear_Leg04 0.000000 0.000000 0.000000 0.000000 0.000000 0.000000 10.000000 
Rear_Foot 0.000000 0.000000 0.000000 0.000000 0.000000 0.000000 10.000000 
planeAlignerCenter 0.000000 0.000000 0.000000 0.000000 0.000000 0.000000 10.000000 
Rear_Toe1_01 0.000000 0.000000 0.000000 0.000000 0.000000 0.000000 10.000000 
Rear_Toe2_01 0.000000 0.000000 0.000000 0.000000 0.000000 0.000000 10.000000 
Rear_Toe3_01 0.000000 0.000000 0.000000 0.000000 0.000000 0.000000 10.000000 
planeLockWeightCenter 0.000000 0.000000 0.000000 0.000000 0.000000 0.000000 10.000000 
Rear_Toe1_02 0.000000 0.000000 0.000000 0.000000 0.000000 0.000000 10.000000 
Rear_Toe1_03 0.000000 0.000000 0.000000 0.000000 0.000000 0.000000 10.000000 
Rear_Toe2_02 0.000000 0.000000 0.000000 0.000000 0.000000 0.000000 10.000000 
Rear_Toe2_03 0.000000 0.000000 0.000000 0.000000 0.000000 0.000000 10.000000 
Rear_Toe3_02 0.000000 0.000000 0.000000 0.000000 0.000000 0.000000 10.000000 
Rear_Toe3_03 0.000000 0.000000 0.000000 0.000000 0.000000 0.000000 10.000000 
Back_Bone 0.000000 0.000000 0.000000 0.000000 0.000000 0.000000 10.000000 
Head 0.000000 0.000000 0.000000 0.000000 0.000000 0.000000 10.000000 
Motor_Bone 0.000000 0.000000 0.000000 0.000000 0.000000 0.000000 10.000000 
Ping_Mechanism 0.000000 0.000000 0.000000 0.000000 0.000000 0.000000 10.000000 
BN_LookIK 0.000000 0.000000 0.000000 0.000000 0.000000 0.000000 10.000000 
bottomMouth 0.000000 0.000000 0.000000 0.000000 0.000000 0.000000 10.000000 
L_Mouth01 0.000000 0.000000 0.000000 0.000000 0.000000 0.000000 10.000000 
L_mouthFront 0.000000 0.000000 0.000000 0.000000 0.000000 0.000000 10.000000 
mouthGun 0.000000 0.000000 0.000000 0.000000 0.000000 0.000000 10.000000 
R_Mouth01 0.000000 0.000000 0.000000 0.000000 0.000000 0.000000 10.000000 
R_mouthFront 0.000000 0.000000 0.000000 0.000000 0.000000 0.000000 10.000000 
TopMouth 0.000000 0.000000 0.000000 0.000000 0.000000 0.000000 10.000000 
weapon_bone 0.000000 0.000000 0.000000 0.000000 0.000000 0.000000 10.000000 
#Beginning of Data. Separated by tabs
#Fr	Tx	Ty	Tz	Rx	Ry	Rz	SF
[Pinger_Root]
25 0.000000 3111.110596 0.000000 -0.000075 -0.000000 -0.000020 3111.110596
26 0.000000 3240.740234 0.000000 -0.000075 -0.000000 -0.000020 3240.740234
27 0.000000 3370.369629 0.000000 -0.000075 -0.000000 -0.000020 3370.369629
[Pelvis]
25 -136.619247 982.539429 5003.370605 39.175167 -71.898369 -22.034897 5100.761230
26 -79.542480 1001.550537 5026.413574 42.140175 -72.730103 -23.542612 5125.842773
27 -19.644674 1010.594116 5055.052734 45.323605 -73.535896 -25.272272 5155.118164
[L_Hip]
25 5.766392 125.831482 872.656799 -178.250168 -81.786369 87.376007 881.701050
26 5.766392 125.831482 872.656799 -178.250168 -81.786369 87.376007 881.701050
27 5.766392 125.831482 872.656799 -178.250168 -81.786369 87.376007 881.701050
[R_Hip]
25 5.765438 125.836372 -872.654907 -1.748770 81.786041 87.376961 881.699829
26 5.765438 125.836372 -872.654907 -1.748770 81.786041 87.376961 881.699829
27 5.765438 125.836372 -872.654907 -1.748770 81.786041 87.376961 881.699829
[Rear_Leg01]
25 -192.298416 -925.602966 -0.001907 -161.076996 6.092842 -148.330673 945.367432
26 -192.298416 -925.602966 -0.001907 -160.889542 3.476099 -149.904388 945.367432
27 -192.298416 -925.602966 -0.001907 -160.660767 1.314811 -152.012070 945.367432
[Spine1]
25 290.604584 5.007505 0.000477 -22.786745 -3.699612 38.564163 290.647736
26 290.604584 5.007505 0.000477 -23.753033 -1.883033 38.638882 290.647736
27 290.604584 5.007505 0.000477 -24.716124 -0.066043 38.682915 290.647736
[L_Leg01]
25 761.932007 -0.002384 -0.069261 82.190811 20.708313 -89.345070 761.932068
26 761.932007 -0.002384 -0.069261 84.645081 22.491144 -86.942009 761.932068
27 761.932007 -0.002384 -0.069261 87.845261 23.511974 -84.825188 761.932068
[L_Leg02]
25 1441.140503 -0.000954 -0.000715 -1.316132 0.820680 -70.017723 1441.140503
26 1441.140503 -0.000954 -0.000715 -1.303168 0.835154 -67.711044 1441.140503
27 1441.140503 -0.000954 -0.000715 -1.289644 0.849083 -65.406219 1441.140503
[L_Leg03]
25 1686.963989 -0.000715 -0.000954 0.108622 -0.012121 80.594963 1686.963989
26 1686.963989 -0.000715 -0.000954 0.115735 -0.010011 79.073151 1686.963989
27 1686.963989 -0.000715 -0.000954 0.122858 -0.006905 76.795883 1686.963989
[L_Foot]
25 3041.570068 -30.715107 11.297464 -19.401022 6.630427 85.220947 3041.746094
26 3041.570068 -30.715107 11.297464 -20.214848 7.219479 85.981239 3041.746094
27 3041.570068 -30.715107 11.297464 -20.653654 8.771569 87.092056 3041.746094
[L_Toe1_01]
25 -188.216690 -224.732346 -21.137953 88.813950 -1.558645 -145.601501 293.899567
26 -188.216690 -224.732346 -21.137953 88.814163 -1.560370 -145.574020 293.899567
27 -188.216690 -224.732346 -21.137953 88.814362 -1.562096 -145.546539 293.899567
[L_Toe2_01]
25 200.746536 -219.926590 148.838394 -74.738213 -10.409223 -59.465279 332.896027
26 200.746536 -219.926590 148.838394 -74.744583 -10.375151 -59.440392 332.896027
27 200.746536 -219.926590 148.838394 -74.750931 -10.341072 -59.415501 332.896027
[L_Toe3_01]
25 188.832520 -219.859131 -191.078659 -109.697830 12.799916 -61.276443 347.140900
26 188.832520 -219.859131 -191.078659 -109.758827 12.705723 -61.564560 347.140900
27 188.832520 -219.859131 -191.078659 -109.695435 12.655082 -61.391380 347.140900
[planeAlignerLeft]
25 -79.649353 -809.792236 0.039215 0.000000 -90.000000 -90.001900 813.699829
26 -78.886108 -810.537170 0.039139 0.000000 -90.000000 -90.001900 814.366943
27 -78.122871 -811.282166 0.039063 0.000000 -90.000000 -90.001900 815.034912
[L_Toe1_02]
25 413.761139 0.000477 0.000000 0.001386 -25.777327 0.001386 413.761139
26 413.761139 0.000477 0.000000 0.001386 -25.745440 0.001386 413.761139
27 413.761139 0.000477 0.000000 0.001386 -25.713547 0.001386 413.761139
[L_Toe1_03]
25 464.317322 0.000358 -0.000089 0.003152 46.280045 0.003152 464.317322
26 464.317322 0.000358 -0.000089 0.003124 45.860855 0.003124 464.317322
27 464.317322 0.000358 -0.000089 0.003163 46.441433 0.003163 464.317322
[L_Toe2_02]
25 342.235809 -0.000477 0.000238 0.001184 -74.598457 0.001184 342.235809
26 342.235809 -0.000477 0.000238 0.001184 -74.454460 0.001184 342.235809
27 342.235809 -0.000477 0.000238 0.001185 -74.310425 0.001185 342.235809
[L_Toe2_03]
25 420.210846 -0.000715 0.000000 -179.953018 88.648537 -179.949524 420.210846
26 420.210846 -0.000715 0.000000 -179.940140 88.931007 -179.936646 420.210846
27 420.210846 -0.000715 0.000000 -179.918060 89.213417 -179.914566 420.210846
[L_Toe3_02]
25 329.270111 0.000954 0.000000 0.001180 -78.414505 0.001180 329.270111
26 329.270111 0.000954 0.000000 0.001180 -78.259567 0.001180 329.270111
27 329.270111 0.000954 0.000000 0.001180 -78.104591 0.001180 329.270111
[L_Toe3_03]
25 439.137451 -0.001907 0.000954 -179.985046 86.056877 -179.981552 439.137451
26 439.137451 -0.001907 0.000954 -179.983917 86.308167 -179.980408 439.137451
27 439.137451 -0.001907 0.000954 -179.982605 86.559288 -179.979111 439.137451
[planeLockWeightLeft]
25 999.998718 0.098126 0.076315 -0.011826 -0.004376 0.005620 999.998779
26 999.998718 0.098120 0.076324 -0.011826 -0.004376 0.005620 999.998779
27 999.998718 0.098114 0.076332 -0.011826 -0.004376 0.005620 999.998779
[R_Leg01]
25 761.455627 -0.001907 -0.000358 106.580330 -36.783184 42.294830 761.455688
26 761.455627 -0.001907 -0.000358 111.276108 -34.445885 42.977978 761.455688
27 761.455627 -0.001907 -0.000358 115.639435 -25.343670 45.431419 761.455688
[R_Leg02]
25 1441.140625 0.000000 -0.000238 -0.598185 -0.044410 -142.546738 1441.140625
26 1441.140625 0.000000 -0.000238 0.064480 -0.060438 -121.787216 1441.140625
27 1441.140625 0.000000 -0.000238 0.131874 -0.063149 -114.586563 1441.140625
[R_Leg03]
25 1686.963989 0.000954 0.001431 0.031908 -0.011736 118.582512 1686.963989
26 1686.963989 0.000954 0.001431 -0.038862 0.010405 99.942284 1686.963989
27 1686.963989 0.000954 0.001431 -0.031717 0.010363 101.974640 1686.963989
[R_Foot]
25 3041.560059 -30.531288 -11.204481 11.583188 -31.563719 58.364895 3041.734131
26 3041.560059 -30.531288 -11.204481 19.504009 -25.465483 45.381912 3041.734131
27 3041.560059 -30.531288 -11.204481 16.402922 -22.163980 45.843044 3041.734131
[planeAlignerRight]
25 -25.817425 -817.615723 -20.830120 0.000000 -89.960434 -90.005180 818.288452
26 171.141220 -838.384644 -51.278988 0.000000 -89.960434 -90.005180 857.209229
27 110.014389 -769.284607 -30.320744 0.000000 -89.960434 -90.005180 777.702576
[R_Toe1_01]
25 -188.383347 -224.864899 21.052242 90.691116 3.132286 -146.892639 294.101532
26 -188.383347 -224.864899 21.052242 90.118408 4.971579 -148.500946 294.101532
27 -188.383347 -224.864899 21.052242 90.444946 3.713283 -156.174210 294.101532
[R_Toe2_01]
25 200.637817 -220.002121 -148.787384 -106.789154 8.418646 -70.764343 332.857574
26 200.637817 -220.002121 -148.787384 -105.133247 8.415648 -61.356956 332.857574
27 200.637817 -220.002121 -148.787384 -103.940010 10.139219 -54.326832 332.857574
[R_Toe3_01]
25 188.606735 -220.092957 191.126343 -69.215981 -6.806442 -71.481270 347.192566
26 188.606735 -220.092957 191.126343 -72.368637 -4.658292 -62.827824 347.192566
27 188.606735 -220.092957 191.126343 -73.011337 -9.148182 -56.162514 347.192566
[planeLockWeightRight]
25 895.998718 -0.000000 0.076218 -0.011823 -0.004379 -0.000027 895.998718
26 999.999268 0.000000 0.076036 -0.011823 -0.004379 -0.000027 999.999268
27 999.999695 0.000000 0.076046 -0.011823 -0.004379 -0.000027 999.999695
[R_Toe1_02]
25 413.762085 0.000477 -0.000119 0.001429 -20.473446 0.001429 413.762085
26 413.762085 0.000477 -0.000119 0.001447 -18.350996 0.001447 413.762085
27 413.762085 0.000477 -0.000119 0.001419 -21.564932 0.001419 413.762085
[R_Toe1_03]
25 464.317810 0.000000 0.001088 -0.058641 88.842255 -0.055144 464.317810
26 464.317810 0.000000 0.001088 -179.990875 83.937317 -179.987381 464.317810
27 464.317810 0.000000 0.001088 -0.014083 84.657822 -0.010582 464.317810
[R_Toe2_02]
25 342.234741 -0.000954 0.000238 -0.002334 -78.684532 -0.002334 342.234741
26 342.234741 -0.000954 0.000238 0.001208 -62.504040 0.001208 342.234741
27 342.234741 -0.000954 0.000238 0.001207 -62.984753 0.001207 342.234741
[R_Toe2_03]
25 420.210846 0.000715 -0.000268 -179.994614 71.708900 -179.998169 420.210846
26 420.210846 0.000715 -0.000268 -0.004433 64.871803 -0.000851 420.210846
27 420.210846 0.000715 -0.000268 -0.004522 65.729210 -0.000946 420.210846
[R_Toe3_02]
25 329.270355 -0.000477 -0.000954 0.001176 -82.662041 0.001176 329.270355
26 329.270355 -0.000477 -0.000954 0.001191 -70.652779 0.001191 329.270355
27 329.270355 -0.000477 -0.000954 0.001191 -70.343857 0.001191 329.270355
[R_Toe3_03]
25 439.137939 0.000238 0.001431 -179.998749 68.160095 -179.995178 439.137939
26 439.137939 0.000238 0.001431 0.008854 74.765503 0.008854 439.137939
27 439.137939 0.000238 0.001431 0.008506 74.138031 0.008506 439.137939
[Rear_Leg02]
25 1162.777710 -0.029802 0.005960 -9.819147 6.662159 -136.517242 1162.777710
26 1162.777710 -0.029802 0.005960 -9.633705 7.330990 -137.826935 1162.777710
27 1162.777710 -0.029802 0.005960 -9.068464 7.993769 -138.425690 1162.777710
[Rear_Leg03]
25 607.192505 -0.013351 -0.073195 0.010045 -0.005938 77.533684 607.192505
26 607.192505 -0.013351 -0.073195 0.010069 -0.005896 77.061119 607.192505
27 607.192505 -0.013351 -0.073195 0.010122 -0.005805 76.025368 607.192505
[Rear_Leg04]
25 995.874512 -0.020504 -0.011921 -0.043431 -0.016687 92.122993 995.874573
26 995.874512 -0.020504 -0.011921 -0.043091 -0.017547 89.843956 995.874573
27 995.874512 -0.020504 -0.011921 -0.042617 -0.018669 86.844398 995.874573
[Rear_Foot]
25 3096.176270 -0.067472 -0.041425 86.290031 78.407379 -106.282913 3096.176270
26 3096.176270 -0.067472 -0.041425 89.699348 78.515816 -99.733032 3096.176270
27 3096.176270 -0.067472 -0.041425 93.168625 78.545288 -93.123360 3096.176270
[planeAlignerCenter]
25 1.038904 26.655685 -828.186462 0.000009 0.000003 -179.999985 828.615967
26 1.037531 34.633606 -825.816833 0.000009 0.000003 -179.999985 826.543396
27 1.036777 41.265526 -817.628357 0.000009 0.000003 -179.999985 818.669678
[Rear_Toe1_01]
25 0.653352 83.966492 -371.173737 0.063879 29.024244 90.028076 380.553192
26 0.653352 83.966492 -371.173737 0.064534 28.930342 90.030746 380.553192
27 0.653352 83.966492 -371.173737 0.065181 28.836445 90.033417 380.553192
[Rear_Toe2_01]
25 178.200760 -294.826019 -362.060547 0.359087 54.243042 -71.173431 499.765686
26 178.200760 -294.826019 -362.060547 0.475616 54.119553 -70.963470 499.765686
27 178.200760 -294.826019 -362.060547 0.591019 53.995789 -70.754555 499.765686
[Rear_Toe3_01]
25 -153.359680 -308.780914 -362.060852 -0.565953 54.232292 -111.170891 499.952881
26 -153.359680 -308.780914 -362.060852 -0.695358 54.105972 -111.408241 499.952881
27 -153.359680 -308.780914 -362.060852 -0.823478 53.979324 -111.644371 499.952881
[planeLockWeightCenter]
25 1000.000488 0.000388 0.076223 -0.011814 -0.004373 -0.000015 1000.000488
26 1000.000488 0.000384 0.076226 -0.011814 -0.004373 -0.000015 1000.000488
27 1000.000488 0.000379 0.076229 -0.011814 -0.004373 -0.000015 1000.000488
[Rear_Toe1_02]
25 379.707825 0.194073 0.000477 -0.000767 -33.624729 0.000838 379.707855
26 379.707825 0.194073 0.000477 -0.000767 -33.624729 0.000838 379.707855
27 379.707825 0.194073 0.000477 -0.000767 -33.624729 0.000838 379.707855
[Rear_Toe1_03]
25 500.129700 0.165701 0.000119 0.007123 71.033081 0.007123 500.129761
26 500.129700 0.165701 0.000119 0.006676 69.750023 0.006676 500.129761
27 500.129700 0.165701 0.000119 -0.004939 69.052223 -0.001384 500.129761
[Rear_Toe2_02]
25 340.494507 0.000238 -0.000954 0.001182 -76.451210 0.001182 340.494507
26 340.494507 0.000238 -0.000954 0.001181 -77.367752 0.001181 340.494507
27 340.494507 0.000238 -0.000954 0.001180 -78.284576 0.001180 340.494507
[Rear_Toe2_03]
25 433.103577 0.000000 0.000238 0.014566 80.757111 0.014566 433.103546
26 433.103577 0.000000 0.000238 0.017619 82.360481 0.017619 433.103546
27 433.103577 0.000000 0.000238 0.022291 83.963821 0.022291 433.103546
[Rear_Toe3_02]
25 340.494141 -0.000358 -0.000477 0.001182 -76.369400 0.001182 340.494171
26 340.494141 -0.000358 -0.000477 0.001181 -77.284531 0.001181 340.494171
27 340.494141 -0.000358 -0.000477 0.001180 -78.199959 0.001180 340.494171
[Rear_Toe3_03]
25 433.103577 0.001431 -0.000238 0.014335 80.607857 0.014335 433.103546
26 433.103577 0.001431 -0.000238 0.003525 82.196190 0.005277 433.103546
27 433.103577 0.001431 -0.000238 -0.012352 83.784317 -0.008850 433.103546
[Back_Bone]
25 1312.175781 -701.934692 0.000954 2.107728 -3.291730 -83.853790 1488.125488
26 1312.175781 -701.934692 0.000954 2.333966 -2.968246 -83.663704 1488.125488
27 1312.175781 -701.934692 0.000954 2.504240 -2.429769 -83.952141 1488.125488
[Head]
25 1406.159424 809.709290 0.001431 1.065596 -2.306856 3.847669 1622.625488
26 1406.159424 809.709290 0.001431 1.495576 -2.378880 3.566946 1622.625488
27 1406.159424 809.709290 0.001431 1.925900 -2.448792 3.285693 1622.625488
[Motor_Bone]
25 1158.364380 -417.834747 0.000477 -1.034489 -1.094876 -107.077385 1231.419434
26 1158.364380 -417.834747 0.000477 -2.188160 -1.022762 -107.007042 1231.419434
27 1158.364380 -417.834747 0.000477 -2.074372 -0.843160 -106.828514 1231.419434
[Ping_Mechanism]
25 1199.739746 -399.803467 82.783569 0.000103 -0.000053 82.120995 1267.308716
26 1198.495239 -400.701874 78.257568 0.000103 -0.000053 82.120995 1266.126831
27 1197.250854 -401.600342 73.731567 0.000103 -0.000053 82.120995 1264.961914
[BN_LookIK]
25 193.241119 1380.371704 -0.002861 0.000000 89.965736 -31.038179 1393.832153
26 193.241119 1380.371704 -0.002861 0.000000 89.965736 -31.038179 1393.832153
27 193.241119 1380.371704 -0.002861 0.000000 89.965736 -31.038179 1393.832153
[bottomMouth]
25 -435.092926 615.759399 -0.000954 -0.000022 0.000016 73.527184 753.966492
26 -435.092926 615.759399 -0.000954 -0.000022 0.000016 73.527184 753.966492
27 -435.092926 615.759399 -0.000954 -0.000022 0.000016 73.527184 753.966492
[L_Mouth01]
25 554.440979 7.658243 838.222046 150.204178 23.759130 109.605339 1005.027161
26 554.440979 7.658243 838.222046 150.204178 23.759130 109.605339 1005.027161
27 554.440979 7.658243 838.222046 150.204178 23.759130 109.605339 1005.027161
[L_mouthFront]
25 551.629089 934.514771 339.150421 0.000081 2.804060 79.119301 1136.941284
26 551.629089 934.514771 339.150421 0.000081 2.804060 79.119301 1136.941284
27 551.629089 934.514771 339.150421 0.000081 2.804060 79.119301 1136.941284
[mouthGun]
25 55.332661 1627.420898 0.000000 0.000023 0.000009 -11.038128 1628.361328
26 55.332661 1627.420898 0.000000 0.000023 0.000009 -11.038128 1628.361328
27 55.332661 1627.420898 0.000000 0.000023 0.000009 -11.038128 1628.361328
[R_Mouth01]
25 554.442383 7.659197 -838.223938 29.795891 -23.759109 109.605331 1005.029541
26 554.442383 7.659197 -838.223938 29.795891 -23.759109 109.605331 1005.029541
27 554.442383 7.659197 -838.223938 29.795891 -23.759109 109.605331 1005.029541
[R_mouthFront]
25 551.629089 934.514282 -339.151367 0.000029 -2.803930 79.119133 1136.941162
26 551.629089 934.514282 -339.151367 0.000029 -2.803930 79.119133 1136.941162
27 551.629089 934.514282 -339.151367 0.000029 -2.803930 79.119133 1136.941162
[TopMouth]
25 461.269867 -56.106091 -0.008583 -0.000059 -0.000268 92.025169 464.669525
26 461.269867 -56.106091 -0.008583 -0.000059 -0.000268 92.025169 464.669525
27 461.269867 -56.106091 -0.008583 -0.000059 -0.000268 92.025169 464.669525
[weapon_bone]
25 -987.239868 1448.372803 0.001431 0.000000 89.965736 -31.038221 1752.833740
26 -987.239868 1448.372803 0.001431 0.000000 89.965736 -31.038221 1752.833740
27 -987.239868 1448.372803 0.001431 0.000000 89.965736 -31.038221 1752.833740
